<svg xmlns="http://www.w3.org/2000/svg" width="100" height="100" viewBox="0 0 100 100"><g transform="translate(0 3.5)"><path d="M50 50 C 42 44 39 27 49 15 C 53 11 60 14 60 22 C 60 35 55 44 50 50 Z" transform="rotate(0 50 50)" fill="#A85475"/><path d="M50 50 C 42 44 39 27 49 15 C 53 11 60 14 60 22 C 60 35 55 44 50 50 Z" transform="rotate(72 50 50)" fill="#E0739A"/><path d="M50 50 C 42 44 39 27 49 15 C 53 11 60 14 60 22 C 60 35 55 44 50 50 Z" transform="rotate(144 50 50)" fill="#A85475"/><path d="M50 50 C 42 44 39 27 49 15 C 53 11 60 14 60 22 C 60 35 55 44 50 50 Z" transform="rotate(216 50 50)" fill="#E0739A"/><path d="M50 50 C 42 44 39 27 49 15 C 53 11 60 14 60 22 C 60 35 55 44 50 50 Z" transform="rotate(288 50 50)" fill="#8E3F5F"/><circle cx="50" cy="50" r="6" fill="#ffffff"/><circle cx="50" cy="50" r="3.2" fill="#A85475"/></g></svg>
